<svg xmlns="http://www.w3.org/2000/svg" xmlns:xlink="http://www.w3.org/1999/xlink" width="108" height="100" viewBox="0 0 108 100"><defs><style>.a{fill:none;}.b{clip-path:url(#a);}.c{fill:url(#b);}.d{fill:url(#c);}.e{fill:url(#d);}.f{fill:url(#e);}</style><clipPath id="a"><rect class="a" width="108" height="100" transform="translate(0 109.773)"/></clipPath><radialGradient id="b" cx="0.826" cy="0.358" fx="0.776005744934082" r="0.127" gradientTransform="matrix(0.819, 0.574, -1.822, 2.602, 0.802, -1.047)" gradientUnits="objectBoundingBox"><stop offset="0" stop-color="#af250e"/><stop offset="0.001" stop-color="#af250e"/><stop offset="0.437" stop-color="#d64430"/><stop offset="0.785" stop-color="#ee5746"/><stop offset="1" stop-color="#f75f4e"/></radialGradient><linearGradient id="c" x1="-0.295" y1="1.235" x2="0.339" y2="0.408" gradientUnits="objectBoundingBox"><stop offset="0" stop-color="#af250e"/><stop offset="0.497" stop-color="#d94633"/><stop offset="0.9" stop-color="#f75f4e"/></linearGradient><linearGradient id="d" x1="-0.064" y1="1.138" x2="0.271" y2="0.727" xlink:href="#c"/><linearGradient id="e" x1="-0.046" y1="1.137" x2="0.149" y2="0.909" gradientUnits="objectBoundingBox"><stop offset="0" stop-color="#af250e"/><stop offset="0.478" stop-color="#d74532"/><stop offset="0.9" stop-color="#f75f4e"/></linearGradient></defs><g transform="translate(-753 -1240)"><g class="b" transform="translate(753 1130.227)"><g transform="translate(-50.529 53.971)"><path class="c" d="M123.366,92.811a26.418,26.418,0,1,1-4.9-6.239l13.662-19.416a50.114,50.114,0,1,0,5.517,5.3Z"/><path class="d" d="M87.684,104.281h-9.2l-4.036,5.734a26.219,26.219,0,0,0,3.1,8.794Z"/><path class="e" d="M116.177,90.177h-9.2l-24.529,34.86a26.435,26.435,0,0,0,6.228,4.356Z"/><path class="f" d="M149.225,55.8l-53.21,76a26.041,26.041,0,0,0,9.364-.089L158.529,55.8Z"/></g></g></g></svg>